<svg width="36" height="41" fill="none" xmlns="http://www.w3.org/2000/svg"><path fill-rule="evenodd" clip-rule="evenodd" d="M18 36.3c5.965 0 10.8-1.209 10.8-2.7s-4.835-2.7-10.8-2.7c-5.965 0-10.8 1.209-10.8 2.7s4.835 2.7 10.8 2.7z" fill="#E6E6F0"/><path d="M18.514 2C25.958 2 32.03 7.912 32 15.189c0 .938-.088 1.876-.292 2.785 0 .057-.03.114-.03.17-1.488 6.368-11.908 16.117-12.346 16.543a1.273 1.273 0 0 1-.818.313c-.291 0-.583-.085-.817-.313-.438-.398-10.916-10.175-12.405-16.684 0-.086-.03-.143-.03-.2A13.034 13.034 0 0 1 5 15.19C5 7.912 11.071 2 18.514 2z" fill="#2B9486" filter="url(#filter0_d)"/><path fill-rule="evenodd" clip-rule="evenodd" d="M18.5 21a6.5 6.5 0 1 0 0-13 6.5 6.5 0 0 0 0 13z" fill="#fff"/><defs><filter id="filter0_d" x="1" y="0" width="35" height="41" filterUnits="userSpaceOnUse" color-interpolation-filters="sRGB"><feFlood flood-opacity="0" result="BackgroundImageFix"/><feColorMatrix in="SourceAlpha" values="0 0 0 0 0 0 0 0 0 0 0 0 0 0 0 0 0 0 127 0"/><feOffset dy="2"/><feGaussianBlur stdDeviation="2"/><feColorMatrix values="0 0 0 0 0.662745 0 0 0 0 0.662745 0 0 0 0 0.721569 0 0 0 0.4 0"/><feBlend in2="BackgroundImageFix" result="effect1_dropShadow"/><feBlend in="SourceGraphic" in2="effect1_dropShadow" result="shape"/></filter></defs></svg>
